<svg xmlns="http://www.w3.org/2000/svg" xmlns:xlink="http://www.w3.org/1999/xlink" viewBox="0 0 44.36 44.36"><defs>
<style>.cls-1,.cls-2{fill:none;}.cls-2{stroke:#1d1d1b;stroke-miterlimit:10;}.cls-3{fill:#f9b017;}.cls-4{fill:#ffd402;}.cls-5{fill:#b34517;}.cls-6{fill:#f29597;}.cls-7{fill:url(#New_Pattern);}</style>
<pattern id="New_Pattern" data-name="New Pattern" width="17.01" height="28.35" patternUnits="userSpaceOnUse" viewBox="0 0 17.01 28.35"><rect class="cls-1" width="17.01" height="28.35"/><polygon class="cls-2" points="22.25 26.79 22.25 20.74 17.01 17.71 11.77 20.74 11.77 26.79 17.01 29.82 22.25 26.79"/><polygon class="cls-2" points="22.25 35.95 22.25 29.9 17.01 26.88 11.77 29.9 11.77 35.95 17.01 38.98 22.25 35.95"/><polygon class="cls-2" points="5.24 26.79 5.24 20.74 0 17.71 -5.24 20.74 -5.24 26.79 0 29.82 5.24 26.79"/><polygon class="cls-2" points="5.24 35.95 5.24 29.9 0 26.88 -5.24 29.9 -5.24 35.95 0 38.98 5.24 35.95"/><polygon class="cls-2" points="22.25 -1.55 22.25 -7.61 17.01 -10.63 11.77 -7.61 11.77 -1.55 17.01 1.47 22.25 -1.55"/><polygon class="cls-2" points="22.25 7.61 22.25 1.55 17.01 -1.47 11.77 1.55 11.77 7.61 17.01 10.63 22.25 7.61"/><polygon class="cls-2" points="13.74 12.62 13.74 6.57 8.5 3.54 3.26 6.57 3.26 12.62 8.5 15.64 13.74 12.62"/><polygon class="cls-2" points="13.74 21.78 13.74 15.73 8.5 12.7 3.26 15.73 3.26 21.78 8.5 24.81 13.74 21.78"/><polygon class="cls-2" points="5.24 -1.55 5.24 -7.61 0 -10.63 -5.24 -7.61 -5.24 -1.55 0 1.47 5.24 -1.55"/><polygon class="cls-2" points="5.24 7.61 5.24 1.55 0 -1.47 -5.24 1.55 -5.24 7.61 0 10.63 5.24 7.61"/></pattern></defs><g id="Layer_2" data-name="Layer 2"><g id="Layer_1-2" data-name="Layer 1"><circle class="cls-3" cx="22.18" cy="22.18" r="22.18"/><circle class="cls-4" cx="22.18" cy="22.18" r="20.32"/><circle class="cls-5" cx="22.18" cy="22.18" r="14.99"/><circle class="cls-6" cx="22.18" cy="22.18" r="12.99"/><polygon class="cls-3" points="7.31 9.01 8.77 9.53 10.01 8.62 9.97 10.16 11.22 11.07 9.74 11.51 9.27 12.97 8.39 11.7 6.85 11.7 7.79 10.48 7.31 9.01"/><polygon class="cls-3" points="16.1 3.31 17.19 4.4 18.71 4.12 18.01 5.49 18.74 6.84 17.22 6.6 16.16 7.72 15.92 6.2 14.53 5.54 15.9 4.83 16.1 3.31"/><polygon class="cls-3" points="36.88 9.01 35.43 9.53 34.18 8.62 34.22 10.16 32.98 11.07 34.45 11.51 34.93 12.97 35.8 11.7 37.35 11.7 36.41 10.48 36.88 9.01"/><polygon class="cls-3" points="28.05 3.31 26.96 4.4 25.45 4.12 26.15 5.49 25.41 6.84 26.93 6.6 28 7.72 28.24 6.2 29.63 5.54 28.26 4.83 28.05 3.31"/><circle class="cls-7" cx="22.18" cy="22.18" r="12.99"/></g></g></svg>